<svg id="Layer_1" data-name="Layer 1" xmlns="http://www.w3.org/2000/svg" viewBox="0 0 93.28 79.79"><defs><style>.cls-1{fill:#939598;}.cls-2{fill:#df134c;}</style></defs><title>logo1</title><path class="cls-1" d="M.31,64.38V55.44a3.06,3.06,0,0,1,.07-.59A1.59,1.59,0,0,1,2.69,54a1.55,1.55,0,0,1,.82,1.46v8.91c0,.29,0,.6,0,.91a1.42,1.42,0,0,1-1.39,1.12C1,66.43.31,65.72.31,64.38Zm-.2-13a1.65,1.65,0,0,1,1-1.49,1.65,1.65,0,0,1,2.36,1.38,1.69,1.69,0,0,1-.92,1.61,1.68,1.68,0,0,1-2.4-1.5Z"/><path class="cls-1" d="M6.34,64.49v-9A1.51,1.51,0,0,1,7,54a1.48,1.48,0,0,1,2.17.51l0,.11,0,.06.06-.08.12-.07.15-.13.16-.11a3.66,3.66,0,0,1,2.49-.56,3.37,3.37,0,0,1,2.21,1.06l.23.22.08-.06.14-.13.18-.14.11-.11a4.39,4.39,0,0,1,2.69-.86c2.41,0,4,1.22,4.38,3.18a3.35,3.35,0,0,1,.07.71v6.7c0,.24,0,.48,0,.75a1.5,1.5,0,0,1-1.61,1.24,1.68,1.68,0,0,1-1.64-1.92V58.12a1.52,1.52,0,0,0,0-.29,1.32,1.32,0,0,0-1.34-1.17A1.46,1.46,0,0,0,15.94,58v6.5a1.64,1.64,0,1,1-3.27,0V58.08A1.38,1.38,0,0,0,11,56.66a1.5,1.5,0,0,0-1.25.91,1.76,1.76,0,0,0-.12.75v6.19a3.19,3.19,0,0,1-.09.7,1.63,1.63,0,0,1-3.17-.72Z"/><path class="cls-1" d="M28.34,60a4.78,4.78,0,0,1,0-.53c.12-2,.52-2.71,1.48-2.91,1.64-.38,2.4.53,2.35,3.42,0,2.5-.6,3.3-1.9,3.3s-1.84-.73-1.93-2.59C28.34,60.4,28.34,60.18,28.34,60ZM26,69.64a1.63,1.63,0,0,0,2.31-.82,2.32,2.32,0,0,0,.09-.62V66l0-.36s0-.09,0-.13,0,0,0,0l.2.13.05,0,.13.08.16.09.13.07A4.67,4.67,0,0,0,33,65.72c1.5-.77,2.33-2.14,2.51-4.57.38-4.91-1-7-3.72-7.5a4.39,4.39,0,0,0-3.49.69l-.11.09-.09,0,0-.09-.07-.11,0-.11-.07-.09a1.64,1.64,0,0,0-2.13-.33c-.47.27-.67.67-.67,1.51V68A1.58,1.58,0,0,0,26,69.64Z"/><path class="cls-1" d="M44.21,58.36H41.1c-.09-.06-.13-.17-.07-.51a1.85,1.85,0,0,1,.23-.55l.13-.2a1.65,1.65,0,0,1,1-.59,1.58,1.58,0,0,1,2.15,1.32c.07.44,0,.53,0,.53Zm3.56-.28c-.31-3.17-2.5-4.93-6.13-4.29-2.2.37-3.61,1.92-3.92,4.57-.69,5.73,1.77,8.42,5.93,7.87,2.56-.35,3.88-1.77,3.88-2.83a1.41,1.41,0,0,0-1.17-1.46c-.45-.08-.8.05-1.43.6-1.59,1.37-3.38,1-3.87-.35a.82.82,0,0,1-.09-.33c-.09-.47,0-.62,0-.67h5.46C47.77,61.19,48,60.79,47.77,58.08Z"/><path class="cls-1" d="M50.26,64.73V55.22a1.5,1.5,0,0,1,2-1.54c.54.15.74.33.85.66l0,.13,0,.07.09-.09.11-.09.09-.06.13-.11a3.2,3.2,0,0,1,1-.49c1.39-.31,2.49.33,2.69,1.19.31,1.39-.51,2-2.46,1.79a1,1,0,0,0-.34,0A1.28,1.28,0,0,0,53.48,58l0,.31v6.43a1.43,1.43,0,0,1-.87,1.42A1.58,1.58,0,0,1,50.26,64.73Z"/><path class="cls-1" d="M58.76,64.38V55.44a3.06,3.06,0,0,1,.07-.59A1.6,1.6,0,0,1,61.14,54,1.56,1.56,0,0,1,62,55.42v8.91c0,.29,0,.6,0,.91a1.42,1.42,0,0,1-1.39,1.12C59.44,66.43,58.76,65.72,58.76,64.38Zm-.2-13a1.66,1.66,0,0,1,3.32-.11A1.69,1.69,0,0,1,61,52.86a1.68,1.68,0,0,1-2.4-1.5Z"/><path class="cls-1" d="M64.79,62.34V55.47c0-1.26.42-1.84,1.45-1.93S68,54.1,68,55.25v6.3c0,1.41.74,2.12,2,1.83a1.65,1.65,0,0,0,.92-.55,2,2,0,0,0,.38-1.51v-6.1a1.53,1.53,0,0,1,1.48-1.72,1.56,1.56,0,0,1,1.7,1.68v9.17a1.61,1.61,0,0,1-2.76,1.29l0-.07-.09-.16-.09-.15-.11.07-.07.06-.07.07-.18.13a1.24,1.24,0,0,1-.31.22,4,4,0,0,1-2.87.29,3.56,3.56,0,0,1-3-3.14C64.81,62.76,64.79,62.54,64.79,62.34Z"/><path class="cls-1" d="M77.28,64.49v-9A1.51,1.51,0,0,1,78,54a1.48,1.48,0,0,1,2.17.51l0,.11,0,.06.07-.08.11-.07.16-.13.15-.11a3.67,3.67,0,0,1,2.49-.56A3.34,3.34,0,0,1,85.4,54.8l.23.22.09-.06.13-.13.18-.14.11-.11a4.39,4.39,0,0,1,2.69-.86c2.42,0,4,1.22,4.39,3.18a4.17,4.17,0,0,1,.06.71v6.7c0,.24,0,.48,0,.75a1.5,1.5,0,0,1-1.61,1.24A1.68,1.68,0,0,1,90,64.38V58.12a1.52,1.52,0,0,0,0-.29,1.31,1.31,0,0,0-1.34-1.17A1.46,1.46,0,0,0,86.88,58v6.5a1.64,1.64,0,1,1-3.27,0V58.08a1.38,1.38,0,0,0-1.7-1.42,1.5,1.5,0,0,0-1.25.91,1.77,1.77,0,0,0-.11.75v6.19a3.94,3.94,0,0,1-.09.7,1.64,1.64,0,0,1-3.18-.72Z"/><path class="cls-2" d="M2.77,44.85C2.19,43.76,1.61,42.51,1,41.42c.46-4,.3-8.09,1.83-11.86a11.41,11.41,0,0,1,1.79-2.38c1.15-1.8,1.84-3.76,2.84-5.71.67-1.2,1.63-2.09,2.29-3.29A25.67,25.67,0,0,1,10.67,15c.33-.44.95-.57,1.28-1,1.15-1.8,2.89-2.8,3.88-4.6a3.22,3.22,0,0,0,2.25-2.22c0-1.07.68-1.52,1.79-2.09.31-.14.49-.89.8-.87,1.71-.1,3.4.12,5.12-.13,1.09-.26,2.17-.23,3.27-.49s2,.22,3.1,0c2-.39,3.91-1.09,5.79-1.63.51-1.36,2-.85,3.12-.81.47-.14.65-.59,1-.88.79-.43,1.7-.1,2.48-.07.61.18,1.38.36,2,.53C50,1.57,53.63.94,56.65,3c2,.38,4.16.46,6.16.83a8.35,8.35,0,0,1,1.84.53,4.54,4.54,0,0,1,1.53.66,5.4,5.4,0,0,0,2.89,1.33c1.53.51,2.57,1.77,4.09,2.59A3.76,3.76,0,0,1,74,10.23a2.69,2.69,0,0,0,1.36,1c1.07.35,2.13,1,3.2,1.34s1,1.26,1.48,2c.89,1.11,2.58,1.47,3,2.71a12.79,12.79,0,0,1,1.11,3.4,9.43,9.43,0,0,0,.36,2.92,7.67,7.67,0,0,0,1,2.33c1.34,1.58,3.32,2.26,4.18,4.28l.45.48c1.32,2,1.39,4.17,1.93,6.33,0,.46,0,.77,0,1.23a22.52,22.52,0,0,1,1,2.94l-3.8,2.16c-.44-.63-.72-1.41-1.17-2,.37-1.52-.19-3.07,0-4.59-1-1.41-1.59-3.27-3.43-3.79a8,8,0,0,1-.85-2,12.82,12.82,0,0,0-1.56-4c-1-1.57-2.32-3.07-2.1-4.89,0-.16-.32-.24-.47-.25-.77-.18-.93-.65-1.7-1-.61-.18-.9-.8-1.5-1.28-.3-.31-.59-.78-.89-1.1a14.92,14.92,0,0,1-3.27-3.63c-2.87-2.09-6-4-9.76-4.33A27.37,27.37,0,0,0,58,7.67a15.58,15.58,0,0,0-3.59-.89c-4-.45-7.18-.54-11.2-.68-1.43,0-3.16.92-5.5,1.46-.94.27-1.85-.07-2.79.2-2.35.53-4.68.75-7,1.28-.81,1-.86,2.42-2,3-1.43.87-3.16.77-4.59,1.79C19.62,15.13,18,17,16.28,18.41c-.77,0-1.27.72-1.6,1.32a24.3,24.3,0,0,1-3.28,4.93,4.54,4.54,0,0,0-.84,2,17.39,17.39,0,0,1-2.63,4.19,1.17,1.17,0,0,0-.34.75c-.09,2.45-1,4.71-1,7.15-1,2-.61,4.11-.69,6.25a1.69,1.69,0,0,1-.17.45,18.56,18.56,0,0,1-2.92-.56Z"/><path class="cls-2" d="M82.55,44.48c-.45-.62.09-1.58-.51-2.06.36-1.52-.4-2.86-.34-4.39a15.16,15.16,0,0,1-1.33-1.88c-.29-.47-.28-.78-.57-1.25-1.77-2.51-2.75-5.14-4.21-7.64.21-1.68-1.78-2.2-3-3a7.52,7.52,0,0,1-1.33-1.73c-.14-.31-.45-.32-.6-.64-.15-.15,0-.3-.14-.46-.44-.47-.73-.94-1.18-1.42-.15-.16-.46-.17-.61-.33-1.2-1.11-2.23-2.52-3.77-2.88-3.21-1-6.6-1.61-9-3.84-.62,0-1.06-.65-1.68-.83-.15,0-.47.14-.62.14a16.94,16.94,0,0,0-4.8-.18,30,30,0,0,1-7.42-.26c-2,.69-4.23,1.22-6.42,1.76-.15,0-.16.3-.32.29-.62.13-1.25.42-2,.54-.16,0-.32.3-.48.44-.94.28-1.44,1.18-2.22,1.45a11.92,11.92,0,0,1-3.93,1.39c-1.12,1.19-1.95,2.69-3.39,3.71a7,7,0,0,1-1.71.39,6.47,6.47,0,0,1-1.11.73,10.56,10.56,0,0,0-1.44,1.17,11.72,11.72,0,0,1-2.93,3.87,1.87,1.87,0,0,0-.19.91,6.77,6.77,0,0,0-1.71,4.38,7.12,7.12,0,0,0-1.51,3.31c-.37,1.67,0,3.36-.5,5-.19,1.06-.85,2.11-1.05,3.32,1.85.22,3.71.14,5.56.51a3.85,3.85,0,0,0,.38-1.82A5,5,0,0,0,15.92,41c1-1.35.72-2.88,1.09-4.4.17-.61,1-1,1.29-1.48C19,33.8,19.64,32.3,20.47,31c.67-1.35,2.24-2.06,3.37-3.24.49-.75.52-1.51,1-2.26.8-.74,1.3-1.64,2.1-2.37,1.91-1.31,3.61-1.77,5.51-2.93,1.11-.57,1.8-2,2.89-2.28.62,0,1.09-.11,1.71-.09.31,0,.63-.28.94-.27a6.57,6.57,0,0,0,4.21-.92c2.48.09,5.29-.58,7.4,1,2.77.55,5.89-.25,8.3,1.67a13.7,13.7,0,0,0,2.25,2.07,14.11,14.11,0,0,0,2.29.84c.46.32,1.07.35,1.53.67,1,1.11,1.6,2.66,3.13,3.32.15.16.3.17.45.48,1,.95,2.58,1.31,3.15,2.71.44.63,1.36,1,1.33,1.73.39,2,1.1,3.86,1.65,5.72,1.19,1.42,3.15,2.71,2.92,4.84,0,.31.29.47.28.78a11,11,0,0,1-.24,2.28c2,.07,3.88-.17,5.9-.25Z"/><path class="cls-2" d="M20.28,44.56a9.22,9.22,0,0,0,.87-2.73,16.58,16.58,0,0,0-.21-2.6c.07-1.84,1.36-3.32,2.35-5,.66-1.2,1.93-2.07,2.91-3.26,1-1.34,2.1-2.52,2.47-4.19a16,16,0,0,0,6.65-3.74A9,9,0,0,1,38.14,22c1.09-.12,2,.22,3.1.11.78-.28,1.58-1,2.36-1a26.15,26.15,0,0,1,9.7,1.42c1.53.66,3.06,1.18,4.58,1.84,1.19,1.42,3,2,4.54,3.07a22,22,0,0,0,3.18,2,2.55,2.55,0,0,0,.24,1.84,7,7,0,0,1,1,1.11c.3.32.76.49,1.06.8.14.31.45.48.75.8A17.1,17.1,0,0,1,70,36.24c.42,1.23.85,2.32,1.27,3.56.42,1.08,1.32,1.88,1.59,3a4,4,0,0,1,0,1.38c-2.46-.4-4.78-.48-7.25-.72-.12-.92-.57-1.55-.69-2.47a10.07,10.07,0,0,0-1.69-4.5c-.3-.32-.75-.64-1.05-1-.74-1-1.49-1.74-2.23-2.68-1-1-1.62-2.2-2.83-3-1.67-1-2.86-2.09-4.7-2.77a15.27,15.27,0,0,0-2.61-.7l-5.86-.67a12.33,12.33,0,0,0-2.33.22c-.31.14-.78.28-1.1.42-.32.45-.77,0-1.1.57s-.72.32-1.19.45a4.54,4.54,0,0,1-1.56.33c-.15,0-.21.58-.37.58-1.26.57-2.07.6-3,1.79A65.93,65.93,0,0,0,29,35.54a7,7,0,0,0-1.17,2.4,30.26,30.26,0,0,1-.91,3.64,8.14,8.14,0,0,0-1,1.34,5,5,0,0,0-.09,2.6c-1.84-.53-3.7-.59-5.54-1Z"/><path class="cls-2" d="M29.55,45c.34-.6.05-1.37.23-2,.5-1.05,1.16-2,1.66-3,.17-.45-.12-.92,0-1.37a11.83,11.83,0,0,1,2.61-3.58,21.72,21.72,0,0,1,5.56-4.33,44.8,44.8,0,0,1,6.55-.59,14.54,14.54,0,0,0,5.69,1,16,16,0,0,1,3.91,3.35A8.56,8.56,0,0,0,58.39,36a30,30,0,0,1,3.29,7.46c-1.56.1-3.26.19-4.81.14-.44-.63-1-1.26-1-2a8.31,8.31,0,0,0-3.53-5.17A14.17,14.17,0,0,0,50,35.52c-2-.53-3.86-.44-5.86-.82a20.54,20.54,0,0,0-6.11,2.08c-1.31,1.79-3.07,3.41-3.46,5.69,0,1.07-.09,2.29-.13,3.36-1.69-.37-3.23-.42-4.93-.79Z"/><path class="cls-2" d="M38.7,44.91c.81-1,.86-2.42,1.21-3.63.18-.45.64-.44,1.12-.72.63-.44,1-1,1.59-1.32.47-.14.8-.59,1.26-.57,1.85.22,3.86.44,5.7.81.6.64,1.37.66,2,1.15.74.94,1.15,2.18,1.89,3.27-.94.28-1.75,1.17-2.84,1.28-3.26.19-6.37.54-9.64,1A17.41,17.41,0,0,1,38.19,46a1.35,1.35,0,0,0,.51-1.05Z"/><path class="cls-1" d="M2.57,73.63H1.49v2.61c0,.41,0,.5.06.6a.34.34,0,0,0,.34.19c.3,0,.69-.16.85-.16s.11,0,.11.14v.39c0,.27,0,.3-.28.32a8.49,8.49,0,0,1-.88,0c-1,0-1.16-.29-1.16-1.49V73.63H.27c-.24,0-.27,0-.27-.28v-.23c0-.18.12-.24.27-.24H.53v-1c0-.25,0-.28.27-.28h.46c.17,0,.23.13.23.28v1H2.57c.23,0,.3.05.3.24v.14C2.87,73.59,2.85,73.63,2.57,73.63Z"/><path class="cls-1" d="M8,77.66H7.63c-.32,0-.37,0-.37-.29V74.6a2.48,2.48,0,0,0-.09-.95.56.56,0,0,0-.47-.15,2.53,2.53,0,0,0-1.47.56v3.31c0,.23,0,.29-.23.29H4.64c-.33,0-.37,0-.37-.29v-6.3c0-.25.06-.28.27-.28H5c.18,0,.23.12.23.28v2.12a3.32,3.32,0,0,1,1.59-.48A1.22,1.22,0,0,1,8.22,74v3.33C8.22,77.6,8.18,77.66,8,77.66Z"/><path class="cls-1" d="M12.72,74.4a3.77,3.77,0,0,1,0,.47h-2v-.21c0-.93.18-1.15,1.06-1.15S12.72,73.7,12.72,74.4Zm.91.71a3.53,3.53,0,0,0-.28-1.7,1.62,1.62,0,0,0-1.58-.69,1.81,1.81,0,0,0-1.71.7,3.61,3.61,0,0,0-.32,1.88,2.86,2.86,0,0,0,.46,2,2.25,2.25,0,0,0,1.61.51,8.33,8.33,0,0,0,1.53-.15c.21,0,.22-.1.22-.29a1.85,1.85,0,0,0,0-.25c0-.24,0-.31-.11-.31a8.91,8.91,0,0,1-1.62.24,2,2,0,0,1-.76-.15c-.35-.17-.35-.75-.35-1.3h2.67C13.62,75.59,13.63,75.51,13.63,75.11Z"/><path class="cls-1" d="M18,76.41a3,3,0,0,1-1.54.66c-.38,0-.52-.24-.52-.8s.21-.82,1.36-.82l.7,0Zm1,1V74.78c0-1-.1-1.3-.35-1.61a1.81,1.81,0,0,0-1.34-.43,10.57,10.57,0,0,0-1.67.2c-.11,0-.14.08-.14.27v.38c0,.13,0,.19.13.19l.13,0a8.2,8.2,0,0,1,1.59-.26.62.62,0,0,1,.59.28,3.23,3.23,0,0,1,.1.93,7.17,7.17,0,0,0-2.22.25c-.51.19-.76.68-.76,1.42,0,1,.42,1.42,1.29,1.42A2.86,2.86,0,0,0,18,77.15v.22c0,.27,0,.29.36.29h.37C18.94,77.66,19,77.6,19,77.37Z"/><path class="cls-1" d="M23,73.63H21.89v2.61c0,.41,0,.5.06.6a.33.33,0,0,0,.33.19c.31,0,.7-.16.86-.16s.1,0,.1.14v.39c0,.27,0,.3-.27.32a8.53,8.53,0,0,1-.89,0c-.95,0-1.15-.29-1.15-1.49V73.63h-.26c-.24,0-.27,0-.27-.28v-.23c0-.18.12-.24.27-.24h.26v-1c0-.25.05-.28.27-.28h.46c.16,0,.23.13.23.28v1H23c.23,0,.29.05.29.24v.14C23.26,73.59,23.24,73.63,23,73.63Z"/><path class="cls-1" d="M27.55,74.4c0,.18,0,.28,0,.47h-2v-.21c0-.93.17-1.15,1.05-1.15S27.55,73.7,27.55,74.4Zm.91.71a3.53,3.53,0,0,0-.28-1.7,1.62,1.62,0,0,0-1.58-.69,1.81,1.81,0,0,0-1.71.7,3.63,3.63,0,0,0-.31,1.88,2.87,2.87,0,0,0,.45,2,2.25,2.25,0,0,0,1.61.51,8.33,8.33,0,0,0,1.53-.15c.21,0,.22-.1.22-.29a1.85,1.85,0,0,0,0-.25c0-.24,0-.31-.1-.31a9.26,9.26,0,0,1-1.63.24,2,2,0,0,1-.76-.15c-.34-.17-.34-.75-.34-1.3h2.66C28.45,75.59,28.46,75.51,28.46,75.11Z"/><path class="cls-1" d="M32.6,73.69a2.44,2.44,0,0,0-1.58.44v3.24c0,.23-.06.29-.23.29h-.4c-.32,0-.36,0-.36-.29V73.16c0-.25,0-.28.27-.28h.49c.16,0,.23.12.23.28v.21a2.75,2.75,0,0,1,1.51-.55c.18,0,.27.07.27.19v.36C32.8,73.62,32.76,73.69,32.6,73.69Z"/><path class="cls-2" d="M34.11,74.16h1.12V73.07a.51.51,0,0,1,.15-.37.52.52,0,0,1,.89.37v1.11h1.11a.55.55,0,0,1,.38.15.52.52,0,0,1-.37.88H36.27v1.12a.49.49,0,0,1-.15.36.53.53,0,0,1-.74,0,.51.51,0,0,1-.15-.36V75.2H34.1a.52.52,0,0,1-.52-.53A.52.52,0,0,1,34.11,74.16Z"/><path class="cls-1" d="M41.57,73.63H40.49v2.61c0,.41,0,.5.06.6a.33.33,0,0,0,.33.19c.31,0,.7-.16.86-.16s.1,0,.1.14v.39c0,.27,0,.3-.27.32a8.49,8.49,0,0,1-.88,0c-1,0-1.16-.29-1.16-1.49V73.63h-.26c-.24,0-.27,0-.27-.28v-.23c0-.18.12-.24.27-.24h.26v-1c0-.25,0-.28.27-.28h.46c.17,0,.23.13.23.28v1h1.08c.23,0,.29.05.29.24v.14C41.86,73.59,41.84,73.63,41.57,73.63Z"/><path class="cls-1" d="M46.59,75.27a3,3,0,0,1-.21,1.32c-.18.33-.4.43-1,.43s-.85-.1-1-.43a4.29,4.29,0,0,1,0-2.65c.17-.34.38-.43,1-.43s.83.09,1,.43A3,3,0,0,1,46.59,75.27Zm1,0A2.71,2.71,0,0,0,47,73.35a2,2,0,0,0-1.65-.63,2.08,2.08,0,0,0-1.67.63,2.76,2.76,0,0,0-.52,1.92,2.7,2.7,0,0,0,.52,1.9,2.05,2.05,0,0,0,1.67.63A2,2,0,0,0,47,77.17,2.65,2.65,0,0,0,47.55,75.27Z"/><path class="cls-1" d="M52.21,77.66h-.36c-.32,0-.37,0-.37-.29V74.6a2.21,2.21,0,0,0-.1-.95c-.07-.09-.2-.15-.47-.15a2.25,2.25,0,0,0-1.46.69v3.18c0,.23-.05.29-.23.29h-.36c-.33,0-.37,0-.37-.29V73.16c0-.25,0-.28.27-.28h.46c.17,0,.23.12.23.28v.16A2.45,2.45,0,0,1,51,72.71,1.22,1.22,0,0,1,52.44,74v3.33C52.44,77.6,52.39,77.66,52.21,77.66Z"/><path class="cls-1" d="M56.92,74.4c0,.18,0,.28,0,.47h-2v-.21c0-.93.18-1.15,1.06-1.15S56.92,73.7,56.92,74.4Zm.92.71a3.53,3.53,0,0,0-.28-1.7A1.62,1.62,0,0,0,56,72.72a1.81,1.81,0,0,0-1.71.7A3.61,3.61,0,0,0,54,75.3a2.86,2.86,0,0,0,.46,2A2.23,2.23,0,0,0,56,77.8a8.33,8.33,0,0,0,1.53-.15c.21,0,.22-.1.22-.29a1.85,1.85,0,0,0,0-.25c0-.24,0-.31-.11-.31A8.91,8.91,0,0,1,56,77a2,2,0,0,1-.76-.15c-.35-.17-.35-.75-.35-1.3h2.67C57.83,75.59,57.84,75.51,57.84,75.11Z"/><path class="cls-1" d="M62.23,74.4c0,.18,0,.28,0,.47h-2v-.21c0-.93.18-1.15,1.05-1.15S62.23,73.7,62.23,74.4Zm.92.71a3.53,3.53,0,0,0-.28-1.7,1.65,1.65,0,0,0-1.59-.69,1.82,1.82,0,0,0-1.71.7,3.63,3.63,0,0,0-.31,1.88,2.8,2.8,0,0,0,.46,2,2.2,2.2,0,0,0,1.6.51,8.33,8.33,0,0,0,1.53-.15c.21,0,.22-.1.22-.29a1.85,1.85,0,0,0,0-.25c0-.24,0-.31-.1-.31a9.09,9.09,0,0,1-1.63.24,2,2,0,0,1-.76-.15c-.34-.17-.34-.75-.34-1.3H62.9C63.14,75.59,63.15,75.51,63.15,75.11Z"/><path class="cls-1" d="M65.44,77.66h-.37c-.32,0-.36,0-.36-.29v-6.3c0-.25.05-.28.27-.28h.46c.17,0,.23.12.23.28v6.3C65.67,77.6,65.62,77.66,65.44,77.66Z"/><path class="cls-1" d="M70.3,76.79a4.35,4.35,0,0,1-1.25.24c-.55,0-.74-.21-.83-.87a7.05,7.05,0,0,1-.06-.86,3.52,3.52,0,0,1,.22-1.37c.14-.32.37-.42.92-.42s.66,0,1,0Zm1,1.39V73.06c0-.23,0-.27-.25-.29-.57,0-.94,0-1.4,0-1.11,0-1.51.14-1.91.61a3.17,3.17,0,0,0-.52,2c0,1.7.5,2.43,1.73,2.43a6,6,0,0,0,1.39-.18,7.68,7.68,0,0,1,0,.83c0,.41-.26.55-.88.55a8.46,8.46,0,0,1-2-.28c-.08,0-.09.09-.13.25a2.43,2.43,0,0,0,0,.38c0,.17,0,.21.18.25a8.82,8.82,0,0,0,1.89.2,2,2,0,0,0,1.75-.71A1.38,1.38,0,0,0,71.26,78.18Z"/><path class="cls-1" d="M75.5,73.69a2.49,2.49,0,0,0-1.59.44v3.24c0,.23,0,.29-.23.29h-.39c-.33,0-.37,0-.37-.29V73.16c0-.25.06-.28.27-.28h.49c.17,0,.23.12.23.28v.21a2.81,2.81,0,0,1,1.51-.55c.18,0,.28.07.28.19v.36C75.7,73.62,75.65,73.69,75.5,73.69Z"/><path class="cls-1" d="M80.22,75.27A2.88,2.88,0,0,1,80,76.59c-.18.33-.4.43-1,.43s-.84-.1-1-.43a4.29,4.29,0,0,1,0-2.65c.18-.34.38-.43,1-.43s.83.09,1,.43A2.9,2.9,0,0,1,80.22,75.27Zm1,0a2.76,2.76,0,0,0-.53-1.92A2.05,2.05,0,0,0,79,72.72a2.09,2.09,0,0,0-1.67.63,2.81,2.81,0,0,0-.52,1.92,2.75,2.75,0,0,0,.52,1.9A2.07,2.07,0,0,0,79,77.8a2,2,0,0,0,1.66-.63A2.7,2.7,0,0,0,81.19,75.27Z"/><path class="cls-1" d="M85.58,74.4c0,.18,0,.28,0,.47h-2v-.21c0-.93.18-1.15,1.06-1.15S85.58,73.7,85.58,74.4Zm.91.71a3.53,3.53,0,0,0-.28-1.7,1.62,1.62,0,0,0-1.58-.69,1.81,1.81,0,0,0-1.71.7,3.63,3.63,0,0,0-.31,1.88,2.87,2.87,0,0,0,.45,2,2.25,2.25,0,0,0,1.61.51,8.33,8.33,0,0,0,1.53-.15c.21,0,.22-.1.22-.29a1.85,1.85,0,0,0,0-.25c0-.24,0-.31-.1-.31a9.26,9.26,0,0,1-1.63.24,2,2,0,0,1-.76-.15c-.35-.17-.35-.75-.35-1.3h2.67C86.48,75.59,86.49,75.51,86.49,75.11Z"/><path class="cls-1" d="M91.27,75.2c0,1-.18,1.58-.57,1.74a1.09,1.09,0,0,1-.53.1,3.7,3.7,0,0,1-1.15-.2V74.13a3.66,3.66,0,0,1,1.56-.62.56.56,0,0,1,.58.48A7.83,7.83,0,0,1,91.27,75.2Zm1,0a2.86,2.86,0,0,0-.48-2,1.22,1.22,0,0,0-1-.43,3.61,3.61,0,0,0-1.72.61v-.17c0-.16-.07-.28-.23-.28h-.46c-.22,0-.27,0-.27.28v6.3c0,.27,0,.29.36.29h.37c.17,0,.23-.06.23-.29V77.64a4.09,4.09,0,0,0,1.12.16A1.91,1.91,0,0,0,92,76.87,3.44,3.44,0,0,0,92.24,75.17Z"/></svg>